<svg xmlns="http://www.w3.org/2000/svg" viewBox="0 0 200 200" width="200" height="200">
  <defs>
    <linearGradient id="purple" x1="0%" y1="0%" x2="100%" y2="100%">
      <stop offset="0%" style="stop-color:#a78bfa"/>
      <stop offset="100%" style="stop-color:#6d28d9"/>
    </linearGradient>
    <linearGradient id="gold" x1="0%" y1="0%" x2="100%" y2="100%">
      <stop offset="0%" style="stop-color:#f5d061"/>
      <stop offset="100%" style="stop-color:#c9a84c"/>
    </linearGradient>
    <filter id="glow">
      <feGaussianBlur stdDeviation="2" result="blur"/>
      <feMerge><feMergeNode in="blur"/><feMergeNode in="SourceGraphic"/></feMerge>
    </filter>
  </defs>

  <!-- Outer hexagon (AI node) -->
  <polygon points="100,18 169,58 169,138 100,178 31,138 31,58"
           fill="none" stroke="url(#purple)" stroke-width="3" opacity="0.6"/>

  <!-- Inner hexagon -->
  <polygon points="100,35 155,68 155,128 100,161 45,128 45,68"
           fill="none" stroke="url(#gold)" stroke-width="1.5" opacity="0.3"/>

  <!-- Owl eyes — circles with glow -->
  <g filter="url(#glow)">
    <!-- Left eye — gold (profit) -->
    <circle cx="75" cy="80" r="16" fill="#0f0f23" stroke="url(#gold)" stroke-width="2"/>
    <circle cx="75" cy="80" r="8" fill="url(#gold)" opacity="0.9"/>
    <circle cx="72" cy="77" r="3" fill="#ffffff" opacity="0.5"/>

    <!-- Right eye — purple (strategy) -->
    <circle cx="125" cy="80" r="16" fill="#0f0f23" stroke="url(#purple)" stroke-width="2"/>
    <circle cx="125" cy="80" r="8" fill="url(#purple)" opacity="0.9"/>
    <circle cx="122" cy="77" r="3" fill="#ffffff" opacity="0.5"/>
  </g>

  <!-- Beak — downward triangle (execution) -->
  <polygon points="100,102 92,118 108,118"
           fill="none" stroke="url(#gold)" stroke-width="2" opacity="0.8"/>

  <!-- Owl brow line -->
  <path d="M60,66 Q100,55 140,66" fill="none" stroke="url(#purple)" stroke-width="1.5" opacity="0.4"/>

  <!-- Data nodes around the owl -->
  <g filter="url(#glow)">
    <!-- Top -->
    <circle cx="100" cy="22" r="3" fill="url(#purple)"/>
    <line x1="100" y1="28" x2="100" y2="48" stroke="url(#purple)" stroke-width="1" opacity="0.4"/>
    <!-- Bottom -->
    <circle cx="100" cy="172" r="3" fill="url(#gold)"/>
    <line x1="100" y1="158" x2="100" y2="148" stroke="url(#gold)" stroke-width="1" opacity="0.4"/>
    <!-- Top-left -->
    <circle cx="55" cy="45" r="3" fill="url(#purple)"/>
    <line x1="62" y1="52" x2="70" y2="62" stroke="url(#purple)" stroke-width="1" opacity="0.3"/>
    <!-- Top-right -->
    <circle cx="145" cy="45" r="3" fill="url(#gold)"/>
    <line x1="138" y1="52" x2="130" y2="62" stroke="url(#gold)" stroke-width="1" opacity="0.3"/>
    <!-- Bottom-left -->
    <circle cx="50" cy="145" r="3" fill="url(#gold)"/>
    <line x1="58" y1="138" x2="68" y2="128" stroke="url(#gold)" stroke-width="1" opacity="0.3"/>
    <!-- Bottom-right -->
    <circle cx="150" cy="145" r="3" fill="url(#purple)"/>
    <line x1="142" y1="138" x2="132" y2="128" stroke="url(#purple)" stroke-width="1" opacity="0.3"/>
  </g>

  <!-- Crosshair lines (scanning/aiming — floor snipe) -->
  <g stroke="url(#gold)" stroke-width="1" opacity="0.2">
    <line x1="20" y1="100" x2="48" y2="100"/>
    <line x1="152" y1="100" x2="180" y2="100"/>
    <line x1="100" y1="20" x2="100" y2="35"/>
    <line x1="100" y1="165" x2="100" y2="180"/>
  </g>
</svg>